<?xml version="1.0" encoding="UTF-8" standalone="no"?>
<!-- Created with Inkscape (http://www.inkscape.org/) -->

<svg
   width="30mm"
   height="30mm"
   viewBox="0 0 30 30"
   version="1.1"
   id="svg1"
   inkscape:version="1.2.2 (732a01da63, 2022-12-09)"
   sodipodi:docname="push_button_normally_open_momentary.svg"
   xmlns:inkscape="http://www.inkscape.org/namespaces/inkscape"
   xmlns:sodipodi="http://sodipodi.sourceforge.net/DTD/sodipodi-0.dtd"
   xmlns="http://www.w3.org/2000/svg"
   xmlns:svg="http://www.w3.org/2000/svg">
  <sodipodi:namedview
     id="namedview1"
     pagecolor="#ffffff"
     bordercolor="#000000"
     borderopacity="0.25"
     inkscape:showpageshadow="2"
     inkscape:pageopacity="0.0"
     inkscape:pagecheckerboard="false"
     inkscape:deskcolor="#d1d1d1"
     inkscape:document-units="mm"
     inkscape:zoom="10.394369"
     inkscape:cx="45.55351"
     inkscape:cy="46.707981"
     inkscape:window-width="958"
     inkscape:window-height="1000"
     inkscape:window-x="953"
     inkscape:window-y="0"
     inkscape:window-maximized="0"
     inkscape:current-layer="push_button_normally_open_momentary"
     showgrid="true"
     showguides="true">
    <inkscape:grid
       id="grid207"
       units="mm"
       originx="0"
       originy="0"
       spacingx="10"
       spacingy="10"
       empcolor="#0099e5"
       empopacity="0.30196078"
       color="#0099e5"
       opacity="0.14901961"
       empspacing="5"
       dotted="false"
       gridanglex="30"
       gridanglez="30"
       visible="true" />
    <sodipodi:guide
       position="15.587169,12.612927"
       orientation="1,0"
       id="guide518"
       inkscape:locked="false" />
  </sodipodi:namedview>
  <defs
     id="defs1">
    <inkscape:perspective
       sodipodi:type="inkscape:persp3d"
       inkscape:vp_x="0 : 15 : 1"
       inkscape:vp_y="0 : 1000 : 0"
       inkscape:vp_z="30 : 15 : 1"
       inkscape:persp3d-origin="15 : 10 : 1"
       id="perspective358" />
    <inkscape:path-effect
       effect="fillet_chamfer"
       id="path-effect3"
       is_visible="true"
       lpeversion="1"
       nodesatellites_param="F,0,0,1,0,0,0,1 @ F,0,0,1,0,0,0,1 | F,0,0,1,0,0,0,1 @ F,0,0,1,0,0,0,1 @ F,0,0,1,0,0,0,1"
       radius="0"
       unit="px"
       method="auto"
       mode="F"
       chamfer_steps="1"
       flexible="false"
       use_knot_distance="true"
       apply_no_radius="true"
       apply_with_radius="true"
       only_selected="false"
       hide_knots="false" />
    <inkscape:path-effect
       effect="fillet_chamfer"
       id="path-effect2"
       is_visible="true"
       lpeversion="1"
       nodesatellites_param="F,0,0,1,0,0,0,1 @ F,0,0,1,0,0,0,1 | F,0,0,1,0,0,0,1 @ F,0,0,1,0,0,0,1 @ F,0,0,1,0,0,0,1"
       radius="0"
       unit="px"
       method="auto"
       mode="F"
       chamfer_steps="1"
       flexible="false"
       use_knot_distance="true"
       apply_no_radius="true"
       apply_with_radius="true"
       only_selected="false"
       hide_knots="false" />
    <inkscape:path-effect
       effect="fillet_chamfer"
       id="path-effect1"
       is_visible="true"
       lpeversion="1"
       nodesatellites_param="F,0,0,1,0,0,0,1 @ F,0,0,1,0,0,0,1 | F,0,0,1,0,0,0,1 @ F,0,0,1,0,0,0,1 @ F,0,0,1,0,0,0,1"
       radius="0"
       unit="px"
       method="auto"
       mode="F"
       chamfer_steps="1"
       flexible="false"
       use_knot_distance="true"
       apply_no_radius="true"
       apply_with_radius="true"
       only_selected="false"
       hide_knots="false" />
  </defs>
  <g
     inkscape:label="root"
     inkscape:groupmode="layer"
     id="root"
     transform="translate(-38.816974,-123.44018)">
    <g
       id="push_button_normally_open_momentary"
       inkscape:label="push_button_normally_open_momentary"
       transform="translate(-2.2871627,3.3949418)">
      <title
         id="title609">Push_button_normally_open_momentary</title>
      <text
         xml:space="preserve"
         style="font-size:1.05833px;fill:#000000;stroke-width:0.264583"
         x="55.138401"
         y="132.44505"
         id="text14-39-5-8"><tspan
           sodipodi:role="line"
           id="tspan14-9-3-8"
           style="font-size:1.05833px;text-align:center;text-anchor:middle;stroke-width:0.264583"
           x="55.138401"
           y="132.44505">{REF}</tspan></text>
      <path
         style="fill:none;stroke:#000000;stroke-width:0.243;stroke-linecap:round;stroke-linejoin:miter;stroke-dasharray:none;stroke-opacity:1"
         d="m 55.123619,133.07053 v 1.16393"
         id="path12-1-8-6-9"
         inkscape:connector-curvature="0"
         sodipodi:nodetypes="cc" />
      <path
         style="fill:none;stroke:#000000;stroke-width:0.235484px;stroke-linecap:round;stroke-linejoin:miter;stroke-opacity:1"
         d="m 50.125325,135.18808 h 3.143063"
         id="path12-1-5-6"
         inkscape:connector-curvature="0"
         sodipodi:nodetypes="cc"
         inkscape:label="path12-1-5" />
      <text
         xml:space="preserve"
         style="font-size:1.05833px;fill:#000000;stroke-width:0.264583"
         x="53.458294"
         y="136.93742"
         id="text14-39-9-4-7"><tspan
           sodipodi:role="line"
           id="tspan14-9-8-4-9"
           style="font-size:1.05833px;stroke-width:0.264583"
           x="53.458294"
           y="136.93742">{VAL}</tspan></text>
      <path
         style="fill:none;stroke:#000000;stroke-width:0.242043px;stroke-linecap:round;stroke-linejoin:miter;stroke-opacity:1"
         d="m 53.458308,134.37547 h 3.320579"
         id="path12-1-8-0"
         inkscape:connector-curvature="0"
         sodipodi:nodetypes="cc" />
      <path
         style="fill:none;stroke:#000000;stroke-width:0.227224px;stroke-linecap:round;stroke-linejoin:miter;stroke-opacity:1"
         d="m 56.954383,135.18419 h 2.926449"
         id="path12-1-0"
         inkscape:connector-curvature="0"
         sodipodi:nodetypes="cc" />
      <circle
         style="fill:#ff0000;stroke:none;stroke-width:0.264583;stroke-opacity:1"
         id="refblock-5-7-7-3-6"
         cx="50.28141"
         cy="135.18781"
         r="0.28158441" />
      <circle
         style="fill:#ff0000;stroke:none;stroke-width:0.264583;stroke-opacity:1"
         id="refblock-5-7-7-7-8"
         cx="59.717381"
         cy="135.18806"
         r="0.28158441" />
      <path
         id="path20950"
         style="display:inline;fill:#000000;stroke-width:0.264583"
         d="m 56.615877,134.83652 a 0.34333906,0.34333906 0 0 0 -0.343132,0.34313 0.34333906,0.34333906 0 0 0 0.343132,0.34365 0.34333906,0.34333906 0 0 0 0.343131,-0.34365 0.34333906,0.34333906 0 0 0 -0.343131,-0.34313 z m -0.0021,0.108 a 0.22909087,0.22909087 0 0 1 0.0057,0 0.22909087,0.22909087 0 0 1 0.0057,5.2e-4 0.22909087,0.22909087 0 0 1 0.0062,0 0.22909087,0.22909087 0 0 1 0.0057,5.2e-4 0.22909087,0.22909087 0 0 1 0.0062,0.001 0.22909087,0.22909087 0 0 1 0.0057,5.2e-4 0.22909087,0.22909087 0 0 1 0.0057,0.001 0.22909087,0.22909087 0 0 1 0.0057,0.001 0.22909087,0.22909087 0 0 1 0.0057,0.002 0.22909087,0.22909087 0 0 1 0.0062,0.002 0.22909087,0.22909087 0 0 1 0.0057,0.002 0.22909087,0.22909087 0 0 1 0.0052,0.002 0.22909087,0.22909087 0 0 1 0.0057,0.002 0.22909087,0.22909087 0 0 1 0.0057,0.002 0.22909087,0.22909087 0 0 1 0.0057,0.002 0.22909087,0.22909087 0 0 1 0.0052,0.002 0.22909087,0.22909087 0 0 1 0.0057,0.003 0.22909087,0.22909087 0 0 1 0.0052,0.003 0.22909087,0.22909087 0 0 1 0.0052,0.003 0.22909087,0.22909087 0 0 1 0.0052,0.003 0.22909087,0.22909087 0 0 1 0.0052,0.003 0.22909087,0.22909087 0 0 1 0.0052,0.003 0.22909087,0.22909087 0 0 1 0.0047,0.004 0.22909087,0.22909087 0 0 1 0.0046,0.003 0.22909087,0.22909087 0 0 1 0.0052,0.004 0.22909087,0.22909087 0 0 1 0.0047,0.004 0.22909087,0.22909087 0 0 1 0.0047,0.004 0.22909087,0.22909087 0 0 1 0.0041,0.004 0.22909087,0.22909087 0 0 1 0.0047,0.004 0.22909087,0.22909087 0 0 1 0.0041,0.004 0.22909087,0.22909087 0 0 1 0.0041,0.004 0.22909087,0.22909087 0 0 1 0.0041,0.004 0.22909087,0.22909087 0 0 1 0.0041,0.005 0.22909087,0.22909087 0 0 1 0.0036,0.004 0.22909087,0.22909087 0 0 1 0.0036,0.005 0.22909087,0.22909087 0 0 1 0.0036,0.005 0.22909087,0.22909087 0 0 1 0.0036,0.005 0.22909087,0.22909087 0 0 1 0.0031,0.005 0.22909087,0.22909087 0 0 1 0.0036,0.005 0.22909087,0.22909087 0 0 1 0.0031,0.005 0.22909087,0.22909087 0 0 1 0.0026,0.005 0.22909087,0.22909087 0 0 1 0.0031,0.005 0.22909087,0.22909087 0 0 1 0.0026,0.005 0.22909087,0.22909087 0 0 1 0.0026,0.005 0.22909087,0.22909087 0 0 1 0.0026,0.006 0.22909087,0.22909087 0 0 1 0.0021,0.005 0.22909087,0.22909087 0 0 1 0.0021,0.006 0.22909087,0.22909087 0 0 1 0.0021,0.006 0.22909087,0.22909087 0 0 1 0.0021,0.006 0.22909087,0.22909087 0 0 1 0.0016,0.005 0.22909087,0.22909087 0 0 1 0.0016,0.006 0.22909087,0.22909087 0 0 1 0.0016,0.006 0.22909087,0.22909087 0 0 1 0.0016,0.006 0.22909087,0.22909087 0 0 1 10e-4,0.006 0.22909087,0.22909087 0 0 1 0.001,0.006 0.22909087,0.22909087 0 0 1 5.17e-4,0.006 0.22909087,0.22909087 0 0 1 0.001,0.006 0.22909087,0.22909087 0 0 1 5.17e-4,0.006 0.22909087,0.22909087 0 0 1 0,0.006 0.22909087,0.22909087 0 0 1 5.16e-4,0.006 0.22909087,0.22909087 0 0 1 0,0.006 0.22909087,0.22909087 0 0 1 -5.16e-4,0.0176 0.22909087,0.22909087 0 0 1 -0.0021,0.0165 0.22909087,0.22909087 0 0 1 -0.0031,0.0171 0.22909087,0.22909087 0 0 1 -0.0047,0.0165 0.22909087,0.22909087 0 0 1 -0.0057,0.016 0.22909087,0.22909087 0 0 1 -0.0067,0.016 0.22909087,0.22909087 0 0 1 -0.0078,0.015 0.22909087,0.22909087 0 0 1 -0.0093,0.0145 0.22909087,0.22909087 0 0 1 -0.01033,0.0139 0.22909087,0.22909087 0 0 1 -0.01085,0.0129 0.22909087,0.22909087 0 0 1 -0.0124,0.0119 0.22909087,0.22909087 0 0 1 -0.01292,0.0114 0.22909087,0.22909087 0 0 1 -0.01395,0.0103 0.22909087,0.22909087 0 0 1 -0.01447,0.009 0.22909087,0.22909087 0 0 1 -0.01499,0.008 0.22909087,0.22909087 0 0 1 -0.0155,0.007 0.22909087,0.22909087 0 0 1 -0.01654,0.006 0.22909087,0.22909087 0 0 1 -0.01654,0.005 0.22909087,0.22909087 0 0 1 -0.01654,0.003 0.22909087,0.22909087 0 0 1 -0.01705,0.002 0.22909087,0.22909087 0 0 1 -0.01705,10e-4 0.22909087,0.22909087 0 0 1 -0.01757,-10e-4 0.22909087,0.22909087 0 0 1 -0.01654,-0.002 0.22909087,0.22909087 0 0 1 -0.01705,-0.003 0.22909087,0.22909087 0 0 1 -0.01654,-0.005 0.22909087,0.22909087 0 0 1 -0.01602,-0.006 0.22909087,0.22909087 0 0 1 -0.01602,-0.007 0.22909087,0.22909087 0 0 1 -0.01499,-0.008 0.22909087,0.22909087 0 0 1 -0.01447,-0.009 0.22909087,0.22909087 0 0 1 -0.01395,-0.0103 0.22909087,0.22909087 0 0 1 -0.01292,-0.0114 0.22909087,0.22909087 0 0 1 -0.01189,-0.0119 0.22909087,0.22909087 0 0 1 -0.01137,-0.0129 0.22909087,0.22909087 0 0 1 -0.01033,-0.0139 0.22909087,0.22909087 0 0 1 -0.0088,-0.0145 0.22909087,0.22909087 0 0 1 -0.0083,-0.015 0.22909087,0.22909087 0 0 1 -0.0067,-0.016 0.22909087,0.22909087 0 0 1 -0.0057,-0.016 0.22909087,0.22909087 0 0 1 -0.0047,-0.0165 0.22909087,0.22909087 0 0 1 -0.0031,-0.0171 0.22909087,0.22909087 0 0 1 -0.0016,-0.0165 0.22909087,0.22909087 0 0 1 -10e-4,-0.0176 0.22909087,0.22909087 0 0 1 10e-4,-0.0171 0.22909087,0.22909087 0 0 1 0.0016,-0.0171 0.22909087,0.22909087 0 0 1 0.0031,-0.0165 0.22909087,0.22909087 0 0 1 0.0047,-0.0165 0.22909087,0.22909087 0 0 1 0.0057,-0.0165 0.22909087,0.22909087 0 0 1 0.0067,-0.0155 0.22909087,0.22909087 0 0 1 0.0083,-0.015 0.22909087,0.22909087 0 0 1 0.0088,-0.0145 0.22909087,0.22909087 0 0 1 0.01033,-0.014 0.22909087,0.22909087 0 0 1 0.01137,-0.0129 0.22909087,0.22909087 0 0 1 0.01189,-0.0124 0.22909087,0.22909087 0 0 1 0.01292,-0.0109 0.22909087,0.22909087 0 0 1 0.01395,-0.0103 0.22909087,0.22909087 0 0 1 0.01447,-0.009 0.22909087,0.22909087 0 0 1 0.01499,-0.008 0.22909087,0.22909087 0 0 1 0.01602,-0.007 0.22909087,0.22909087 0 0 1 0.01602,-0.006 0.22909087,0.22909087 0 0 1 0.01654,-0.005 0.22909087,0.22909087 0 0 1 0.01705,-0.003 0.22909087,0.22909087 0 0 1 0.01654,-0.002 0.22909087,0.22909087 0 0 1 0.01757,-5.2e-4 z" />
      <path
         id="path20950-2"
         style="display:inline;fill:#000000;stroke-width:0.264583"
         d="m 53.607924,134.75406 a 0.34333906,0.34333906 0 0 0 -0.343132,0.34313 0.34333906,0.34333906 0 0 0 0.343132,0.34365 0.34333906,0.34333906 0 0 0 0.343131,-0.34365 0.34333906,0.34333906 0 0 0 -0.343131,-0.34313 z m -0.0021,0.108 a 0.22909087,0.22909087 0 0 1 0.0057,0 0.22909087,0.22909087 0 0 1 0.0057,5.2e-4 0.22909087,0.22909087 0 0 1 0.0062,0 0.22909087,0.22909087 0 0 1 0.0057,5.2e-4 0.22909087,0.22909087 0 0 1 0.0062,0.001 0.22909087,0.22909087 0 0 1 0.0057,5.2e-4 0.22909087,0.22909087 0 0 1 0.0057,0.001 0.22909087,0.22909087 0 0 1 0.0057,0.001 0.22909087,0.22909087 0 0 1 0.0057,0.002 0.22909087,0.22909087 0 0 1 0.0062,0.002 0.22909087,0.22909087 0 0 1 0.0057,0.002 0.22909087,0.22909087 0 0 1 0.0052,0.002 0.22909087,0.22909087 0 0 1 0.0057,0.002 0.22909087,0.22909087 0 0 1 0.0057,0.002 0.22909087,0.22909087 0 0 1 0.0057,0.002 0.22909087,0.22909087 0 0 1 0.0052,0.002 0.22909087,0.22909087 0 0 1 0.0057,0.003 0.22909087,0.22909087 0 0 1 0.0052,0.003 0.22909087,0.22909087 0 0 1 0.0052,0.003 0.22909087,0.22909087 0 0 1 0.0052,0.003 0.22909087,0.22909087 0 0 1 0.0052,0.003 0.22909087,0.22909087 0 0 1 0.0052,0.003 0.22909087,0.22909087 0 0 1 0.0047,0.004 0.22909087,0.22909087 0 0 1 0.0046,0.003 0.22909087,0.22909087 0 0 1 0.0052,0.004 0.22909087,0.22909087 0 0 1 0.0047,0.004 0.22909087,0.22909087 0 0 1 0.0047,0.004 0.22909087,0.22909087 0 0 1 0.0041,0.004 0.22909087,0.22909087 0 0 1 0.0047,0.004 0.22909087,0.22909087 0 0 1 0.0041,0.004 0.22909087,0.22909087 0 0 1 0.0041,0.004 0.22909087,0.22909087 0 0 1 0.0041,0.004 0.22909087,0.22909087 0 0 1 0.0041,0.005 0.22909087,0.22909087 0 0 1 0.0036,0.004 0.22909087,0.22909087 0 0 1 0.0036,0.005 0.22909087,0.22909087 0 0 1 0.0036,0.005 0.22909087,0.22909087 0 0 1 0.0036,0.005 0.22909087,0.22909087 0 0 1 0.0031,0.005 0.22909087,0.22909087 0 0 1 0.0036,0.005 0.22909087,0.22909087 0 0 1 0.0031,0.005 0.22909087,0.22909087 0 0 1 0.0026,0.005 0.22909087,0.22909087 0 0 1 0.0031,0.005 0.22909087,0.22909087 0 0 1 0.0026,0.005 0.22909087,0.22909087 0 0 1 0.0026,0.005 0.22909087,0.22909087 0 0 1 0.0026,0.006 0.22909087,0.22909087 0 0 1 0.0021,0.005 0.22909087,0.22909087 0 0 1 0.0021,0.006 0.22909087,0.22909087 0 0 1 0.0021,0.006 0.22909087,0.22909087 0 0 1 0.0021,0.006 0.22909087,0.22909087 0 0 1 0.0016,0.005 0.22909087,0.22909087 0 0 1 0.0016,0.006 0.22909087,0.22909087 0 0 1 0.0016,0.006 0.22909087,0.22909087 0 0 1 0.0016,0.006 0.22909087,0.22909087 0 0 1 10e-4,0.006 0.22909087,0.22909087 0 0 1 0.001,0.006 0.22909087,0.22909087 0 0 1 5.17e-4,0.006 0.22909087,0.22909087 0 0 1 0.001,0.006 0.22909087,0.22909087 0 0 1 5.17e-4,0.006 0.22909087,0.22909087 0 0 1 0,0.006 0.22909087,0.22909087 0 0 1 5.16e-4,0.006 0.22909087,0.22909087 0 0 1 0,0.006 0.22909087,0.22909087 0 0 1 -5.16e-4,0.0176 0.22909087,0.22909087 0 0 1 -0.0021,0.0165 0.22909087,0.22909087 0 0 1 -0.0031,0.0171 0.22909087,0.22909087 0 0 1 -0.0047,0.0165 0.22909087,0.22909087 0 0 1 -0.0057,0.016 0.22909087,0.22909087 0 0 1 -0.0067,0.016 0.22909087,0.22909087 0 0 1 -0.0078,0.015 0.22909087,0.22909087 0 0 1 -0.0093,0.0145 0.22909087,0.22909087 0 0 1 -0.01033,0.0139 0.22909087,0.22909087 0 0 1 -0.01085,0.0129 0.22909087,0.22909087 0 0 1 -0.0124,0.0119 0.22909087,0.22909087 0 0 1 -0.01292,0.0114 0.22909087,0.22909087 0 0 1 -0.01395,0.0103 0.22909087,0.22909087 0 0 1 -0.01447,0.009 0.22909087,0.22909087 0 0 1 -0.01499,0.008 0.22909087,0.22909087 0 0 1 -0.0155,0.007 0.22909087,0.22909087 0 0 1 -0.01654,0.006 0.22909087,0.22909087 0 0 1 -0.01654,0.005 0.22909087,0.22909087 0 0 1 -0.01654,0.003 0.22909087,0.22909087 0 0 1 -0.01705,0.002 0.22909087,0.22909087 0 0 1 -0.01705,0.001 0.22909087,0.22909087 0 0 1 -0.01757,-0.001 0.22909087,0.22909087 0 0 1 -0.01654,-0.002 0.22909087,0.22909087 0 0 1 -0.01705,-0.003 0.22909087,0.22909087 0 0 1 -0.01654,-0.005 0.22909087,0.22909087 0 0 1 -0.01602,-0.006 0.22909087,0.22909087 0 0 1 -0.01602,-0.007 0.22909087,0.22909087 0 0 1 -0.01499,-0.008 0.22909087,0.22909087 0 0 1 -0.01447,-0.009 0.22909087,0.22909087 0 0 1 -0.01395,-0.0103 0.22909087,0.22909087 0 0 1 -0.01292,-0.0114 0.22909087,0.22909087 0 0 1 -0.01189,-0.0119 0.22909087,0.22909087 0 0 1 -0.01137,-0.0129 0.22909087,0.22909087 0 0 1 -0.01033,-0.0139 0.22909087,0.22909087 0 0 1 -0.0088,-0.0145 0.22909087,0.22909087 0 0 1 -0.0083,-0.015 0.22909087,0.22909087 0 0 1 -0.0067,-0.016 0.22909087,0.22909087 0 0 1 -0.0057,-0.016 0.22909087,0.22909087 0 0 1 -0.0047,-0.0165 0.22909087,0.22909087 0 0 1 -0.0031,-0.0171 0.22909087,0.22909087 0 0 1 -0.0016,-0.0165 0.22909087,0.22909087 0 0 1 -0.001,-0.0176 0.22909087,0.22909087 0 0 1 0.001,-0.0171 0.22909087,0.22909087 0 0 1 0.0016,-0.0171 0.22909087,0.22909087 0 0 1 0.0031,-0.0165 0.22909087,0.22909087 0 0 1 0.0047,-0.0165 0.22909087,0.22909087 0 0 1 0.0057,-0.0165 0.22909087,0.22909087 0 0 1 0.0067,-0.0155 0.22909087,0.22909087 0 0 1 0.0083,-0.015 0.22909087,0.22909087 0 0 1 0.0088,-0.0145 0.22909087,0.22909087 0 0 1 0.01033,-0.014 0.22909087,0.22909087 0 0 1 0.01137,-0.0129 0.22909087,0.22909087 0 0 1 0.01189,-0.0124 0.22909087,0.22909087 0 0 1 0.01292,-0.0109 0.22909087,0.22909087 0 0 1 0.01395,-0.0103 0.22909087,0.22909087 0 0 1 0.01447,-0.009 0.22909087,0.22909087 0 0 1 0.01499,-0.008 0.22909087,0.22909087 0 0 1 0.01602,-0.007 0.22909087,0.22909087 0 0 1 0.01602,-0.006 0.22909087,0.22909087 0 0 1 0.01654,-0.005 0.22909087,0.22909087 0 0 1 0.01705,-0.003 0.22909087,0.22909087 0 0 1 0.01654,-0.002 0.22909087,0.22909087 0 0 1 0.01757,-5.2e-4 z" />
    </g>
  </g>
</svg>
